<svg xmlns="http://www.w3.org/2000/svg" viewBox="0 0 1128.38 388.71"><defs><style>.cls-1{fill:#fff;}</style></defs><title>kanlilly-white</title><g id="Layer_2" data-name="Layer 2"><g id="Layer_1-2" data-name="Layer 1"><path class="cls-1" d="M146.17,228.9l-71-94.06a1.86,1.86,0,0,0-1.37-.85,1.53,1.53,0,0,0-1,.85L62.38,146.63a1.83,1.83,0,0,0-.34,1v82.71q0,1.71,1.37,1.71l22.73,2.39a1.21,1.21,0,0,1,1.37,1.37v9.57a1.51,1.51,0,0,1-1.71,1.71H1.71A1.51,1.51,0,0,1,0,245.41v-9.06q0-1.88,1.71-1.88l28-2.73A1.51,1.51,0,0,0,31.45,230V28.71A1.51,1.51,0,0,0,29.74,27l-28-2.91A1.51,1.51,0,0,1,0,22.39V13.33a1.51,1.51,0,0,1,1.71-1.71H86.82a1.51,1.51,0,0,1,1.71,1.71v9.4a1.21,1.21,0,0,1-1.37,1.37L63.4,27Q62,27,62,28.71v94.85l84.59-95.19a1.55,1.55,0,0,0,.34-1.71,1.34,1.34,0,0,0-1.37-1L131.25,24.1a1.51,1.51,0,0,1-1.71-1.71V13.33a1.51,1.51,0,0,1,1.71-1.71H202a1.51,1.51,0,0,1,1.71,1.71v9.06A1.51,1.51,0,0,1,202,24.1l-32.64,3.25a1.39,1.39,0,0,0-1,.34L96.22,108.86a1.66,1.66,0,0,0-.68,1l.34,1,89.54,123.28"/><path class="cls-1" d="M443.63,87.54a22.13,22.13,0,0,1,2.29-.35h10a1.56,1.56,0,0,1,1.76,1.76v15.48q16.19-12.84,39.76-17.95a73.9,73.9,0,0,1,15.84-1.58q46.45,0,46.45,52.26v93.08a1.55,1.55,0,0,0,1.76,1.76l23.4,2.46q1.76,0,1.76,1.94v9a1.56,1.56,0,0,1-1.76,1.76H506.09q-1.94,0-1.94-1.76v-9a1.71,1.71,0,0,1,1.94-1.94l22.7-2.46a1.56,1.56,0,0,0,1.76-1.76V147.71q0-19.35-6.86-28.5-7.92-10.38-26.74-10.38-21.29,0-37.48,8.27a3.81,3.81,0,0,0-1.76,1.41V230.23a1.55,1.55,0,0,0,1.76,1.76l22.7,2.46a1.71,1.71,0,0,1,1.94,1.94v9q0,1.76-1.94,1.76H401.58q-1.94,0-1.94-1.76v-9a1.71,1.71,0,0,1,1.94-1.94L426.74,232a1.56,1.56,0,0,0,1.76-1.76V111.29a1.56,1.56,0,0,0-1.76-1.76l-25.86-3q-1.94,0-1.94-1.76V96.51q0-1.76,1.41-1.76Z"/><path class="cls-1" d="M618.75,23.41A1.51,1.51,0,0,0,617,21.7L589.69,18.8A1.51,1.51,0,0,1,588,17.09v-8c.34-1.14.79-1.71,1.37-1.71l44.09-7A5.64,5.64,0,0,1,635.15,0h10.25a1.51,1.51,0,0,1,1.71,1.71v229q0,1.54,1.71,1.71l27.69,2.39a1.69,1.69,0,0,1,1.71,1.88v8.72a1.51,1.51,0,0,1-1.71,1.71H589.69a1.51,1.51,0,0,1-1.71-1.71v-8.72q0-1.88,1.71-1.88L617,232.42a1.51,1.51,0,0,0,1.71-1.71Z"/><path class="cls-1" d="M687.18,247.12q-1.91,0-1.91-1.74v-8.86a1.69,1.69,0,0,1,1.91-1.91L712,232.18a1.54,1.54,0,0,0,1.74-1.74V113a1.54,1.54,0,0,0-1.74-1.74l-25.7-3a1.53,1.53,0,0,1-1.74-1.74V98.46q0-1.73,1.39-1.74l42.72-7.12a19.52,19.52,0,0,1,2.08-.35h10.07A1.54,1.54,0,0,1,742.58,91V230.45a1.53,1.53,0,0,0,1.74,1.74l23.1,2.43a1.69,1.69,0,0,1,1.91,1.91v8.86q0,1.74-1.91,1.74ZM726.25,5.9A18.75,18.75,0,0,1,740,11.19a18.3,18.3,0,0,1,5.38,13.63A18.3,18.3,0,0,1,740,38.46a18.74,18.74,0,0,1-13.72,5.3,19,19,0,0,1-13.81-5.3A18.14,18.14,0,0,1,707,24.83a18.15,18.15,0,0,1,5.47-13.63A19.05,19.05,0,0,1,726.25,5.9Z"/><path class="cls-1" d="M806.8,23.41a1.51,1.51,0,0,0-1.71-1.71L777.75,18.8A1.51,1.51,0,0,1,776,17.09v-8q.51-1.71,1.37-1.71l44.09-7A5.64,5.64,0,0,1,823.2,0h10.25a1.51,1.51,0,0,1,1.71,1.71v229q0,1.54,1.71,1.71l27.69,2.39a1.69,1.69,0,0,1,1.71,1.88v8.72a1.51,1.51,0,0,1-1.71,1.71H777.75a1.51,1.51,0,0,1-1.71-1.71v-8.72q0-1.88,1.71-1.88l27.34-2.39a1.51,1.51,0,0,0,1.71-1.71Z"/><path class="cls-1" d="M901,23.41a1.51,1.51,0,0,0-1.71-1.71L871.94,18.8a1.51,1.51,0,0,1-1.71-1.71v-8q.51-1.71,1.37-1.71l44.09-7A5.65,5.65,0,0,1,917.4,0h10.25a1.51,1.51,0,0,1,1.71,1.71v229q0,1.54,1.71,1.71l27.69,2.39a1.69,1.69,0,0,1,1.71,1.88v8.72a1.51,1.51,0,0,1-1.71,1.71H871.94a1.51,1.51,0,0,1-1.71-1.71v-8.72q0-1.88,1.71-1.88l27.34-2.39a1.51,1.51,0,0,0,1.71-1.71Z"/><path class="cls-1" d="M1025,92.19q1.88,0,1.88,1.71v8.89c0,.91-.51,1.37-1.54,1.37l-18.12,2.05q-2.4,0-1.37,2.39L1047,208.4l42.38-99.8q1-2.39-1.37-2.39l-18.12-2.05c-1,0-1.54-.45-1.54-1.37V93.9q0-1.71,1.88-1.71h56.23q1.88,0,1.88,1.71v8.54q0,1.71-1.88,1.71l-19.14,2.05a2,2,0,0,0-1.37,1l-62.72,147.66q-33.84,79.47-58.79,79.47a5.53,5.53,0,0,1-2.39-.68l-16.58-16.41a1.69,1.69,0,0,1-.34-2.39l4.27-7a2.31,2.31,0,0,1,1.71-.68q16.58,0,27-7.69,8.2-6.15,17.77-22.22,6-9.91,14.7-30.08a7.24,7.24,0,0,0,0-4.44L973.54,107.57q-.68-1-1.37-1l-20.34-2.39a1.21,1.21,0,0,1-1.37-1.37V93.9a1.51,1.51,0,0,1,1.71-1.71Z"/><path class="cls-1" d="M328.17,244.09V81.23h-.69V87.3a124.7,124.7,0,0,0-25.63-3.25q-38.45,0-62.21,26-22.9,25.29-22.9,64.09,0,28.88,15.38,49.22Q249,245.9,277.06,245.9q26.32,0,50.42-19.65v16.41A1.54,1.54,0,0,0,328.17,244.09Zm-.69-32.89q0,1.37-1.88,2.05a61.93,61.93,0,0,1-33.5,9.4q-23.07,0-34.35-18.63-9.4-15.21-9.4-39.82a94.47,94.47,0,0,1,3.25-25.46q10.94-39,47.51-39,20.51,0,28.37,7.86Z"/><path class="cls-1" d="M354.84,229.48a1.51,1.51,0,0,0,1.71,1.71l25.12,2.91a1.51,1.51,0,0,1,1.71,1.71v8q-.51,1.71-1.37,1.71l-41.87,7a19.25,19.25,0,0,1-2.22.34h-9.74a1.89,1.89,0,0,1-1-.27V89.77h27.68Z"/><path class="cls-1" d="M371.17,88.14l-30-5a19.25,19.25,0,0,0-2.22-.34h-9.74a1.89,1.89,0,0,0-1,.27V245.9h27.68V106.19a1.51,1.51,0,0,1,1.71-1.71l13.61-1.57Z"/><path class="cls-1" d="M889.71,342s-448,154.63-730.85-99a8.17,8.17,0,0,1,0-12.18l5.68-5.07a10.68,10.68,0,0,1,15.79,1.74c32.81,45.71,195,225.11,623.89,61.36"/><path class="cls-1" d="M145.85,227a2.84,2.84,0,0,0,.31,1.88c1.82,2.11,10.25,12.23,13.56,15,1.76,1.46,10.21-.71,13-2.15a.94.94,0,0,0,.28-1.46l-12-13.81a1,1,0,0,0-.64-.32l-11-.92a1,1,0,0,0-.92.51Z"/></g></g></svg>